<svg width="30" height="30" viewBox="0 0 30 30" fill="none" xmlns="http://www.w3.org/2000/svg">
<g clip-path="url(#clip0)">
<path d="M24.0509 2.06934V4.1383H20.4302V2.06934H8.01643V4.1383H4.39574V2.06934H0.257812V7.75899H28.1888V2.06934H24.0509Z" fill="#F05565"/>
<path d="M4.39574 7.75879H0.257812V30.0002H28.1888V7.75879H24.0509H20.4302H8.01643H4.39574Z" fill="#EFEBDE"/>
<path d="M19.3945 11.3799H18.36H14.7394H13.7049H10.0842H9.0497H4.39453V16.0351V17.0695V20.6902V21.7247V26.3799H9.0497H10.0842H13.7049H14.7394H18.36H19.3945H24.0497V21.7247V20.6902V17.0695V16.0351V11.3799H19.3945ZM14.7394 12.4144H18.36V16.0351H14.7394V12.4144ZM18.36 20.6902H14.7394V17.0695H18.36V20.6902ZM10.0842 17.0695H13.7049V20.6902H10.0842V17.0695ZM10.0842 12.4144H13.7049V16.0351H10.0842V12.4144ZM5.42901 12.4144H9.0497V16.0351H5.42901V12.4144ZM5.42901 17.0695H9.0497V20.6902H5.42901V17.0695ZM9.0497 25.3454H5.42901V21.7247H9.0497V25.3454ZM13.7049 25.3454H10.0842V21.7247H13.7049V25.3454ZM18.36 25.3454H14.7394V21.7247H18.36V25.3454ZM23.0152 25.3454H19.3945V21.7247H23.0152V25.3454ZM23.0152 20.6902H19.3945V17.0695H23.0152V20.6902ZM19.3945 16.0351V12.4144H23.0152V16.0351H19.3945Z" fill="#D5D0BB"/>
<path d="M8.01522 0H4.39453V4.13793H8.01522V0Z" fill="#36495E"/>
<path d="M24.0504 0H20.4297V4.13793H24.0504V0Z" fill="#36495E"/>
<path d="M13.7066 17.0693H10.0859V20.69H13.7066V17.0693Z" fill="#7F6E5D"/>
</g>
<defs>
<clipPath id="clip0">
<rect width="30" height="30" fill="white"/>
</clipPath>
</defs>
</svg>
