<svg width="29" height="30" viewBox="0 0 29 30" fill="none" xmlns="http://www.w3.org/2000/svg">
<path d="M9.66779 19H6.44531V21H9.66779V19Z" fill="#73D0F4"/>
<path d="M21.75 22.2163L26.5835 25.001V13.001L21.75 15.7857V22.2163Z" fill="#73D0F4"/>
<path d="M5.64575 23H11.2683C11.7176 23 12.082 22.619 12.082 22.1489V17.8511C12.082 17.3811 11.7176 17 11.2683 17H5.64575C5.19637 17 4.83203 17.3811 4.83203 17.8511V22.1489C4.83203 22.619 5.19637 23 5.64575 23ZM6.45946 18.7023H10.4545V21.2977H6.45946V18.7023Z" fill="#3D6889"/>
<path d="M27.8111 11.3914C27.5731 11.2047 27.2766 11.1913 27.0291 11.3556L21.9324 14.7364V13.2461C21.9324 12.6786 21.5746 12.2186 21.1334 12.2186H18.6448C19.9184 10.9758 20.743 9.00949 20.743 6.79967C20.743 3.05031 18.3708 0 15.4551 0C13.0429 0 11.0042 2.0884 10.3715 4.93236C9.73864 2.08831 7.70007 0 5.28795 0C2.37217 0 0 3.05031 0 6.79967C0 9.00957 0.824549 10.9758 2.09816 12.2186H0.799046C0.357773 12.2186 0 12.6786 0 13.2461V27.9951C0 28.5625 0.357773 29.0226 0.799046 29.0226H21.1334C21.5746 29.0226 21.9324 28.5625 21.9324 27.9951V26.505L27.0291 29.8856C27.1442 29.9621 27.2698 30 27.3953 30C27.5396 30 27.6837 29.9497 27.8111 29.8499C28.0492 29.6634 28.1943 29.3308 28.1943 28.9725V12.2688C28.1943 11.9103 28.0492 11.5779 27.8111 11.3914ZM15.4551 2.05501C17.4897 2.05501 19.1449 4.18339 19.1449 6.79967C19.1449 9.41604 17.4897 11.5445 15.4551 11.5445C13.4204 11.5445 11.7652 9.41604 11.7652 6.79967C11.7652 4.18339 13.4204 2.05501 15.4551 2.05501ZM12.2653 12.2186H8.47761C9.37814 11.34 10.0527 10.0994 10.3714 8.6669C10.6901 10.0994 11.3648 11.34 12.2653 12.2186ZM1.59809 6.79967C1.59809 4.18339 3.25338 2.05501 5.28795 2.05501C7.32252 2.05501 8.97768 4.18339 8.97768 6.79967C8.97768 9.41604 7.32252 11.5445 5.28795 11.5445C3.25338 11.5445 1.59809 9.41604 1.59809 6.79967ZM20.3343 16.4226V24.8189V26.9677H1.59809V14.2737H20.3343V16.4226ZM26.5962 27.2864L21.9324 24.1927V17.0487L26.5962 13.9549V27.2864Z" fill="#3D6889"/>
</svg>
