<svg width="19" height="19" viewBox="0 0 19 19" fill="none" xmlns="http://www.w3.org/2000/svg">
<path fill-rule="evenodd" clip-rule="evenodd" d="M9.17986 14.9999C10.2465 14.9999 11.2265 14.7399 12.1199 14.2199C12.9999 13.6999 13.6999 12.9999 14.2199 12.1199C14.7399 11.2265 14.9999 10.2465 14.9999 9.17986C14.9999 8.11319 14.7399 7.1332 14.2199 6.23986C13.6999 5.35986 12.9999 4.65987 12.1199 4.13986C11.2265 3.61986 10.2465 3.35986 9.17986 3.35986C8.11319 3.35986 7.1332 3.61986 6.23986 4.13986C5.35986 4.65987 4.65987 5.35986 4.13986 6.23986C3.61986 7.1332 3.35986 8.11319 3.35986 9.17986C3.35986 10.2465 3.61986 11.2265 4.13986 12.1199C4.65987 12.9999 5.35986 13.6999 6.23986 14.2199C7.1332 14.7399 8.11319 14.9999 9.17986 14.9999ZM16.64 8.36H18.36V10H16.64C16.52 11.1467 16.1533 12.2033 15.54 13.17C14.9267 14.1367 14.1367 14.9267 13.17 15.54C12.2033 16.1533 11.1467 16.52 10 16.64V18.36H8.36V16.64C7.21333 16.52 6.16 16.1533 5.2 15.54C4.24 14.9267 3.45334 14.1367 2.84 13.17C2.22666 12.2033 1.85333 11.1467 1.72 10H0V8.36H1.72C1.85333 7.21333 2.22666 6.15667 2.84 5.19C3.45334 4.22333 4.24 3.43334 5.2 2.82C6.16 2.20666 7.21333 1.84 8.36 1.72V0H10V1.72C11.1467 1.84 12.2033 2.20666 13.17 2.82C14.1367 3.43334 14.9267 4.22333 15.54 5.19C16.1533 6.15667 16.52 7.21333 16.64 8.36Z" fill="#BDBDBD"/>
</svg>
