<svg width="41" height="31" viewBox="0 0 41 31" fill="none" xmlns="http://www.w3.org/2000/svg">
<path d="M39.7188 27.6268H39.0139C38.8195 27.6268 38.6615 27.449 38.6615 27.231V17.7311C38.6615 14.021 35.9738 11.002 32.6701 11.002H29.8507C26.547 11.002 23.8594 14.021 23.8594 17.7311C23.8594 18.3867 24.3326 18.9186 24.9167 18.9186H27.7361C28.3202 18.9186 28.7934 18.3867 28.7934 17.7311C28.7934 15.8888 29.7109 13.3769 31.2605 13.3769C32.81 13.3769 33.7275 15.8888 33.7275 17.7311V18.4641C32.6644 18.8446 31.6139 19.0485 30.5928 19.2356C28.4675 19.6245 26.46 19.9917 25.0075 21.9801C23.8811 23.5217 23.6064 25.4901 24.2913 27.1158C25.0636 28.9505 26.833 30.0019 29.1459 30.0019H30.5556C31.811 30.0019 32.9905 29.6626 34.2624 28.9328C34.7145 29.5787 35.4081 30.0019 36.1946 30.0019H39.7188C40.3028 30.0019 40.7761 29.4701 40.7761 28.8144C40.7761 28.1588 40.3028 27.6268 39.7188 27.6268ZM33.7274 26.5614C32.5864 27.2948 31.5905 27.6269 30.5555 27.6269C29.6028 27.6269 29.1796 26.9164 29.0116 26.4928C28.6926 25.6865 28.7043 24.4572 29.4502 23.5287C30.3871 22.3617 32.108 21.6289 33.7275 21.0565V26.5615H33.7274V26.5614Z" fill="#FF6469"/>
<path d="M22.86 27.5685H22.1957L13.1065 0.753985C12.952 0.298569 12.5863 0.000976562 12.1805 0.000976562C11.7748 0.000976562 11.4092 0.298759 11.2546 0.753985L2.16542 27.5685H1.50119C0.948111 27.5685 0.5 28.1132 0.5 28.7847C0.5 29.4562 0.948111 30.0009 1.50119 30.0009H2.83888C2.84271 30.0009 2.84662 30.001 2.85045 30.0009H4.17101C4.72409 30.0009 5.1722 29.4562 5.1722 28.7847C5.1722 28.1772 4.80426 27.6778 4.32486 27.5873L6.25505 21.8928H14.7686L16.6989 27.5873C16.2195 27.6777 15.8516 28.1772 15.8516 28.7847C15.8516 29.4562 16.2997 30.0009 16.8527 30.0009H22.8599C23.413 30.0009 23.8611 29.4562 23.8611 28.7847C23.8612 28.1133 23.4131 27.5685 22.86 27.5685ZM7.07955 19.4604L10.5118 9.33458L13.9442 19.4604H7.07955Z" fill="#FFDC69"/>
</svg>
