<svg width="126" height="28" viewBox="0 0 126 28" fill="none" xmlns="http://www.w3.org/2000/svg">
<path d="M33.6049 13.9451H36.3198V25.732C36.3198 26.3111 36.5635 26.5496 37.1552 26.5496H40.1485C40.7402 26.5496 40.9839 26.3111 40.9839 25.732V13.9451H43.7684C44.3601 13.9451 44.6038 13.7066 44.6038 13.1275V10.7088C44.6038 10.1297 44.3601 9.85718 43.7684 9.85718H40.9839V6.04178C40.9839 5.46265 40.7402 5.22419 40.1485 5.22419H37.1552C36.5635 5.22419 36.3198 5.46265 36.3198 6.04178V9.85718H33.6049C33.0132 9.85718 32.7695 10.1297 32.7695 10.7088V13.1275C32.7695 13.7066 33.0132 13.9451 33.6049 13.9451Z" fill="white"/>
<path d="M50.0369 1.40879C48.401 1.40879 47.2523 2.66924 47.2523 4.16814C47.2523 5.70112 48.401 6.89343 50.0369 6.89343C51.7424 6.89343 52.8562 5.70112 52.8562 4.16814C52.8562 2.66924 51.7424 1.40879 50.0369 1.40879ZM48.5054 9.85718C47.9137 9.85718 47.67 10.0956 47.67 10.6748V25.732C47.67 26.3111 47.9137 26.5496 48.5054 26.5496H51.5336C52.1253 26.5496 52.4037 26.3111 52.4037 25.732V10.6748C52.4037 10.0956 52.1253 9.85718 51.5336 9.85718H48.5054Z" fill="white"/>
<path d="M58.2276 9.85718C57.6359 9.85718 57.3574 10.1297 57.3574 10.7088V25.9364C57.3574 26.3792 57.5314 26.5496 57.9839 26.5496H61.4994C61.9171 26.5496 62.0911 26.3792 62.0911 25.9364V17.9649C62.0911 15.1374 63.1005 13.6385 65.1889 13.6385C67.2425 13.6385 68.2171 15.1374 68.2171 17.9649V25.9364C68.2171 26.3792 68.4259 26.5496 68.8436 26.5496H72.3591C72.7767 26.5496 72.9508 26.3792 72.9508 25.9364V17.9649C72.9508 15.1374 73.9602 13.6385 76.0485 13.6385C78.0673 13.6385 79.0767 15.0693 79.0767 17.9649V25.9364C79.0767 26.3792 79.2856 26.5496 79.7032 26.5496H83.2187C83.6364 26.5496 83.8104 26.3792 83.8104 25.9364V17.488C83.8104 12.2759 81.6524 9.51652 77.6148 9.51652C75.3524 9.51652 73.3336 10.4704 71.9414 12.5484C70.8624 10.5385 69.2265 9.51652 66.7552 9.51652C64.806 9.51652 63.1005 10.3682 62.0911 11.7308V10.7088C62.0911 10.1297 61.7778 9.85718 61.1861 9.85718H58.2276Z" fill="white"/>
<path d="M89.4643 1C88.8726 1 88.629 1.23846 88.629 1.78352V25.766C88.629 26.3452 88.8726 26.5496 89.4643 26.5496H94.9638C101.403 26.5496 105.092 23.3133 105.092 18.1012C105.092 12.7528 101.368 9.85718 94.8941 9.85718H93.8151C93.5019 9.85718 93.3627 9.72091 93.3627 9.41432V1.78352C93.3627 1.23846 93.119 1 92.5273 1H89.4643ZM100.254 18.1012C100.254 20.8605 98.3052 22.4957 94.8245 22.4957H93.8151C93.5019 22.4957 93.3627 22.3935 93.3627 22.0188V14.388C93.3627 14.0814 93.5019 13.9451 93.8151 13.9451H94.8245C98.2704 13.9451 100.254 15.3418 100.254 18.1012Z" fill="white"/>
<path d="M109.408 9.85718C108.99 9.85718 108.816 10.0275 108.816 10.4704V18.7484C108.816 24.0968 111.705 26.9243 116.891 26.9243C122.078 26.9243 125.001 24.1309 125.001 18.7144V10.4704C125.001 10.0275 124.827 9.85718 124.41 9.85718H120.894C120.476 9.85718 120.302 10.0275 120.302 10.4704V18.4418C120.302 21.3034 119.154 22.7342 116.891 22.7342C114.629 22.7342 113.55 21.2693 113.55 18.4418V10.4704C113.55 10.0275 113.341 9.85718 112.923 9.85718H109.408Z" fill="white"/>
<path d="M14.2254 27.2254C21.6498 27.2254 27.6768 21.3335 27.6768 14.0553C27.6768 6.77716 21.6498 0.885298 14.2254 0.885298C6.80098 0.885298 0.773969 6.77716 0.773969 14.0553C0.773969 21.3335 6.80098 27.2254 14.2254 27.2254Z" fill="#C1EAFF" stroke="white" stroke-width="0.452061"/>
<path d="M11.8241 17.7872C13.9317 17.7872 15.6403 16.1143 15.6403 14.0508C15.6403 11.9873 13.9317 10.3145 11.8241 10.3145C9.71641 10.3145 8.00781 11.9873 8.00781 14.0508C8.00781 16.1143 9.71641 17.7872 11.8241 17.7872Z" fill="#FFE17D"/>
<path d="M12.6417 14.8509C10.7311 14.8509 9.15313 13.4748 8.87392 11.6807C8.33292 12.3255 8.00781 13.1506 8.00781 14.0503C8.00781 16.1138 9.71634 17.7865 11.8239 17.7865C13.9315 17.7865 15.64 16.1138 15.64 14.0503C15.64 13.8574 15.6205 13.6694 15.5917 13.4843C14.8918 14.3186 13.8304 14.8509 12.6417 14.8509Z" fill="#FFCE86"/>
<path opacity="0.5" d="M7.09327 8.97949C6.70998 8.97949 6.36403 9.12718 6.10352 9.36368C5.95938 9.30139 5.80075 9.26544 5.63305 9.26544C4.98786 9.26544 4.46484 9.7775 4.46484 10.4092H8.5535C8.5535 9.6196 7.89974 8.97949 7.09327 8.97949Z" fill="white"/>
<path opacity="0.9" d="M14.6477 12.8877C15.031 12.8877 15.377 13.0354 15.6375 13.2719C15.7816 13.2096 15.9402 13.1736 16.108 13.1736C16.7531 13.1736 17.2762 13.6857 17.2762 14.3174H13.1875C13.1875 13.5278 13.8413 12.8877 14.6477 12.8877Z" fill="white"/>
<path d="M18.818 16.4689L18.7715 16.4865C18.618 16.5447 18.4729 16.5996 18.3004 16.6435C18.164 16.6782 18.0822 16.8145 18.1176 16.9479C18.1474 17.0604 18.2509 17.1349 18.3643 17.1349C18.3855 17.1349 18.4071 17.1323 18.4286 17.1268C18.6296 17.0757 18.7953 17.0129 18.9555 16.9522L19.0014 16.9349C19.1328 16.8852 19.1983 16.7407 19.1477 16.6121C19.097 16.4834 18.9493 16.4193 18.818 16.4689Z" fill="black"/>
<path d="M17.2846 16.734C16.7405 16.7148 16.4483 16.6041 16.1389 16.4868C15.7707 16.3474 15.39 16.2032 14.6379 16.2032C13.8862 16.2032 13.5058 16.3474 13.1378 16.4869C12.7986 16.6154 12.4782 16.7369 11.8219 16.7369C11.1653 16.7369 10.8448 16.6154 10.5055 16.4868C10.1374 16.3474 9.75686 16.2031 9.005 16.2031C8.25338 16.2031 7.87291 16.3474 7.50496 16.4868C7.19631 16.6039 6.90476 16.7144 6.36287 16.7338C6.22209 16.7389 6.11219 16.8547 6.11736 16.9925C6.12253 17.1303 6.24086 17.2376 6.38157 17.2329C7.00908 17.2103 7.35483 17.0793 7.68916 16.9525C8.02835 16.824 8.3487 16.7025 9.00504 16.7025C9.66162 16.7025 9.98211 16.824 10.3214 16.9526C10.6895 17.092 11.0701 17.2363 11.8219 17.2363C12.5736 17.2363 12.954 17.092 13.322 16.9526C13.6612 16.824 13.9816 16.7025 14.6379 16.7025C15.2948 16.7025 15.6154 16.824 15.9549 16.9526C16.29 17.0795 16.6365 17.2108 17.2662 17.233C17.4061 17.2379 17.5252 17.1303 17.5303 16.9925C17.5353 16.8547 17.4253 16.7389 17.2846 16.734Z" fill="black"/>
<path d="M14.6379 17.2705C13.8862 17.2705 13.5058 17.4148 13.1378 17.5542C12.7986 17.6828 12.4783 17.8042 11.8219 17.8042C11.1653 17.8042 10.8448 17.6828 10.5055 17.5542C10.1375 17.4147 9.75689 17.2705 9.00503 17.2705C8.86418 17.2705 8.75 17.3823 8.75 17.5202C8.75 17.6581 8.86418 17.7699 9.00503 17.7699C9.66161 17.7699 9.9821 17.8913 10.3214 18.0199C10.6895 18.1594 11.07 18.3036 11.8219 18.3036C12.5736 18.3036 12.954 18.1594 13.322 18.0199C13.6612 17.8913 13.9816 17.7699 14.6379 17.7699C14.7787 17.7699 14.8929 17.6581 14.8929 17.5202C14.8929 17.3823 14.7787 17.2705 14.6379 17.2705Z" fill="black"/>
<path d="M5.3477 16.6443C5.17411 16.6003 5.02861 16.5451 4.87457 16.4866C4.74325 16.4368 4.5955 16.5007 4.54463 16.6293C4.49376 16.7579 4.55898 16.9025 4.6903 16.9523C4.85114 17.0133 5.01745 17.0764 5.21971 17.1277C5.24116 17.1332 5.26269 17.1358 5.28387 17.1358C5.39728 17.1358 5.50078 17.0611 5.53057 16.9487C5.56593 16.8152 5.48405 16.6789 5.3477 16.6443Z" fill="black"/>
<path d="M7.7625 14.3349C7.77198 14.4665 7.88396 14.567 8.01664 14.567C8.02269 14.567 8.02875 14.5668 8.03487 14.5664C8.17537 14.5566 8.28122 14.4373 8.2713 14.2997C8.26534 14.2174 8.26235 14.1335 8.26235 14.0504C8.26235 12.1279 9.85982 10.5639 11.8234 10.5639C12.9874 10.5639 14.0803 11.1228 14.7469 12.059C14.8275 12.1721 14.9864 12.1999 15.102 12.1211C15.2175 12.0422 15.2459 11.8866 15.1654 11.7735C14.4035 10.7034 13.1541 10.0645 11.8234 10.0645C9.57861 10.0645 7.75229 11.8525 7.75229 14.0504C7.75226 14.1453 7.75569 14.241 7.7625 14.3349Z" fill="#FBB540"/>
<path d="M5.00894 13.8008C4.86809 13.8008 4.75391 13.9125 4.75391 14.0504C4.75391 14.1883 4.86809 14.3001 5.00894 14.3001H6.64442C6.78526 14.3001 6.89945 14.1883 6.89945 14.0504C6.89945 13.9125 6.78526 13.8008 6.64442 13.8008H5.00894Z" fill="#FBB540"/>
<path d="M11.8234 9.22953C11.9643 9.22953 12.0784 9.11774 12.0784 8.97984V7.3786C12.0784 7.2407 11.9643 7.12891 11.8234 7.12891C11.6826 7.12891 11.5684 7.2407 11.5684 7.3786V8.97984C11.5684 9.11777 11.6826 9.22953 11.8234 9.22953Z" fill="#FBB540"/>
<path d="M15.4855 10.7147C15.5508 10.7147 15.6161 10.6903 15.6659 10.6415L16.8223 9.50928C16.9219 9.41177 16.9219 9.25367 16.8223 9.15619C16.7227 9.05868 16.5612 9.05868 16.4617 9.15619L15.3052 10.2884C15.2056 10.386 15.2056 10.5441 15.3052 10.6415C15.355 10.6903 15.4202 10.7147 15.4855 10.7147Z" fill="#FBB540"/>
<path d="M9.60589 9.46137C9.64656 9.55752 9.74153 9.61558 9.8416 9.61558C9.87414 9.61558 9.9072 9.60946 9.93909 9.59651C10.0692 9.54374 10.131 9.39765 10.0771 9.27028L9.8685 8.77716C9.8146 8.64975 9.66543 8.58929 9.5353 8.64203C9.40516 8.69479 9.34338 8.84088 9.39727 8.96825L9.60589 9.46137Z" fill="#FBB540"/>
<path d="M16.3726 12.2056C16.4132 12.3017 16.5082 12.3598 16.6083 12.3598C16.6408 12.3598 16.6739 12.3536 16.7058 12.3407L17.2094 12.1365C17.3396 12.0837 17.4014 11.9376 17.3475 11.8102C17.2936 11.6828 17.1444 11.6223 17.0143 11.6751L16.5106 11.8793C16.3805 11.9321 16.3187 12.0782 16.3726 12.2056Z" fill="#FBB540"/>
<path d="M13.7077 9.59651C13.7396 9.60946 13.7727 9.61558 13.8052 9.61558C13.9053 9.61558 14.0003 9.55752 14.0409 9.46138L14.2495 8.96825C14.3034 8.84085 14.2417 8.69479 14.1115 8.64203C13.9814 8.58926 13.8322 8.64975 13.7783 8.77716L13.5697 9.27028C13.5158 9.39765 13.5776 9.54371 13.7077 9.59651Z" fill="#FBB540"/>
<path d="M7.03852 12.3597C7.1386 12.3597 7.23357 12.3017 7.27424 12.2055C7.32813 12.0781 7.26635 11.9321 7.13621 11.8793L6.63255 11.6751C6.50238 11.6223 6.35324 11.6828 6.29935 11.8102C6.24545 11.9376 6.30723 12.0837 6.43737 12.1364L6.94103 12.3407C6.97296 12.3536 7.00601 12.3597 7.03852 12.3597Z" fill="#FBB540"/>
<path d="M1.05859 15.2695C1.68401 21.849 7.33843 27 14.2243 27C21.1101 27 26.7645 21.849 27.3899 15.2695H1.05859Z" fill="#00AEFF"/>
<g opacity="0.35">
<path opacity="0.35" d="M26.2896 19.3592C26.8721 18.0911 27.2525 16.7149 27.3899 15.2695H1.05859C1.15737 16.3085 1.38215 17.3115 1.71676 18.2647C6.41229 18.7728 18.7804 19.263 26.2896 19.3592Z" fill="#9AF4EF"/>
</g>
<path d="M1.13516 15.8763H27.306C27.3351 15.6743 27.3704 15.4744 27.3899 15.2695H1.05859C1.07802 15.4736 1.10617 15.6751 1.13516 15.8763Z" fill="#00AEFF"/>
<path d="M10.4738 6.53687C10.4237 6.53687 10.3757 6.5446 10.3292 6.55593C10.1722 6.39009 9.94979 6.28461 9.70062 6.28461C9.54347 6.28461 9.39815 6.32896 9.27142 6.40101C9.11432 6.2836 8.92033 6.21114 8.70738 6.21114C8.62952 6.21114 8.55508 6.22323 8.48275 6.24077C8.23901 5.98316 7.8934 5.81934 7.50635 5.81934C6.76934 5.81934 6.17187 6.40409 6.17187 7.12542H8.84149H9.64147H11.0752C11.0752 6.80035 10.8059 6.53687 10.4738 6.53687Z" fill="white"/>
<g opacity="0.5">
<path opacity="0.5" d="M10.0726 9.33744C10.0726 8.97213 9.77005 8.67603 9.39685 8.67603C9.34054 8.67603 9.28666 8.68473 9.23432 8.69747C9.058 8.5111 8.80796 8.39258 8.52795 8.39258C7.99475 8.39258 7.5625 8.81563 7.5625 9.33749H10.0726V9.33744Z" fill="white"/>
</g>
<g opacity="0.5">
<path opacity="0.5" d="M22.8285 9.1536C22.7737 9.1536 22.7213 9.16209 22.6704 9.17443C22.499 8.99316 22.2558 8.87793 21.9835 8.87793C21.718 8.87793 21.4793 8.98674 21.3086 9.16017C21.138 8.98795 20.9025 8.87793 20.6381 8.87793C20.1195 8.87793 19.6992 9.28936 19.6992 9.7968H21.0446H22.1403H23.4857C23.4857 9.4416 23.1914 9.1536 22.8285 9.1536Z" fill="white"/>
</g>
<path d="M21.6532 7.42719C21.6532 6.82484 21.1542 6.3365 20.5388 6.3365C20.4219 6.3365 20.3113 6.359 20.2054 6.39172C19.87 5.91972 19.3135 5.60936 18.6814 5.60936C18.212 5.60936 17.7846 5.78113 17.4581 6.06261C17.1863 5.73163 16.7707 5.51855 16.303 5.51855C15.8727 5.51855 15.4886 5.70063 15.2177 5.98702C15.1373 5.9675 15.0546 5.9541 14.968 5.9541C14.3945 5.9541 13.9297 6.40911 13.9297 6.97031H15.8151C15.7491 7.10971 15.7096 7.26342 15.7096 7.42719H21.6532Z" fill="white"/>
<g opacity="0.5">
<path opacity="0.5" d="M13.0128 4.27364H15.0707C15.0707 3.95611 14.8077 3.69869 14.4833 3.69869C14.4216 3.69869 14.3634 3.71058 14.3076 3.72782C14.1307 3.479 13.8373 3.31543 13.5042 3.31543C13.1711 3.31543 12.8777 3.479 12.7009 3.72782C12.645 3.71058 12.5868 3.69869 12.5252 3.69869C12.3499 3.69869 12.1943 3.77535 12.0867 3.89447C11.8995 3.77206 11.6794 3.69429 11.4372 3.69429C11.0344 3.69429 10.6796 3.8921 10.4658 4.19299C10.3983 4.17216 10.3279 4.1578 10.2533 4.1578C9.861 4.1578 9.54297 4.46906 9.54297 4.85304H13.3315C13.3314 4.61084 13.2046 4.39807 13.0128 4.27364Z" fill="white"/>
</g>
</svg>
