<svg width="30" height="30" viewBox="0 0 30 30" fill="none" xmlns="http://www.w3.org/2000/svg">
<g clip-path="url(#clip0)">
<path d="M0.982848 8.09086L23.6196 2.03873C24.3233 1.85106 25.0739 2.27328 25.2616 2.97705L29.742 19.6086C29.9297 20.3123 29.5075 21.0395 28.7802 21.2271L6.14359 27.2792C5.43988 27.4669 4.68924 27.0447 4.50157 26.3409L0.0445901 9.70942C-0.143085 9.00571 0.27914 8.27853 0.982848 8.09086Z" fill="#E4E7E7"/>
<path d="M2.8867 9.42677L22.685 4.14881C23.2245 4.00806 23.7875 4.33648 23.9517 4.87598L27.6581 18.6457C27.7988 19.1852 27.4704 19.7482 26.9309 19.8889L7.13253 25.1669C6.59303 25.3076 6.03 24.9792 5.8658 24.4397L2.15952 10.67C1.99531 10.1305 2.32373 9.56751 2.8867 9.42677Z" fill="#208DB2"/>
<path d="M5.08708 7.85547H28.662C29.4127 7.85547 29.9991 8.46537 29.9991 9.19254V26.6685C29.9991 27.4191 29.3892 28.0056 28.662 28.0056H5.08708C4.33643 28.0056 3.75 27.3957 3.75 26.6685V9.1926C3.75 8.46537 4.3599 7.85547 5.08708 7.85547Z" fill="#F3F3F3"/>
<path d="M6.65713 9.73242H27.1357C27.6987 9.73242 28.1678 10.2016 28.1678 10.7645V25.1207C28.1678 25.6836 27.6987 26.1528 27.1357 26.1528H6.65713C6.09416 26.1528 5.625 25.6836 5.625 25.1207V10.7645C5.625 10.2016 6.07069 9.73242 6.65713 9.73242Z" fill="#A3E0F5"/>
<path d="M5.625 10.7645V15.7845C5.85955 15.808 6.09416 15.8314 6.32871 15.8314C9.30781 15.8314 11.724 13.4153 11.724 10.4361C11.724 10.2016 11.7005 9.96697 11.6771 9.73242H6.65712C6.07069 9.73242 5.625 10.2016 5.625 10.7645Z" fill="#EFC75E"/>
<path d="M7.33743 21.2275C6.75099 21.2275 6.16456 21.2745 5.625 21.3448V25.1215C5.625 25.6845 6.09416 26.1536 6.65713 26.1536H14.4686C14.5155 25.9425 14.539 25.7549 14.539 25.5437C14.5389 23.1511 11.3252 21.2275 7.33743 21.2275Z" fill="#3DB39E"/>
<path d="M23.6898 19.1162C17.2624 19.1162 12.0313 22.2595 11.9609 26.1535H27.1146C27.6776 26.1535 28.1468 25.6844 28.1468 25.1214V19.6558C26.7627 19.3274 25.2615 19.1162 23.6898 19.1162Z" fill="#4BC2AD"/>
</g>
<defs>
<clipPath id="clip0">
<rect width="30" height="30" fill="white"/>
</clipPath>
</defs>
</svg>
