<svg width="18" height="18" viewBox="0 0 18 18" fill="none" xmlns="http://www.w3.org/2000/svg">
<path d="M9 5.25V2.25H1.5V15.75H16.5V5.25H9ZM4.5 14.25H3V12.75H4.5V14.25ZM4.5 11.25H3V9.75H4.5V11.25ZM4.5 8.25H3V6.75H4.5V8.25ZM4.5 5.25H3V3.75H4.5V5.25ZM7.5 14.25H6V12.75H7.5V14.25ZM7.5 11.25H6V9.75H7.5V11.25ZM7.5 8.25H6V6.75H7.5V8.25ZM7.5 5.25H6V3.75H7.5V5.25ZM15 14.25H9V12.75H10.5V11.25H9V9.75H10.5V8.25H9V6.75H15V14.25ZM13.5 8.25H12V9.75H13.5V8.25ZM13.5 11.25H12V12.75H13.5V11.25Z" fill="white"/>
</svg>
